<?xml version="1.0" encoding="UTF-8"?>
<svg width="1200pt" height="1200pt" version="1.1" viewBox="0 0 1200 1200" xmlns="http://www.w3.org/2000/svg">
 <path d="m1032 240h-864c-33.086 0-60 26.914-60 60v600c0 33.086 26.914 60 60 60h864c33.086 0 60-26.914 60-60v-600c0-33.086-26.914-60-60-60zm-432 412.91-371.2-340.91h742.38zm-160.41-49.57-259.59 231.35v-469.75zm53.289 48.949 65.363 60.023c11.258 10.922 26.039 16.922 41.762 16.922 15.719 0 30.516-6 41.762-16.922l65.352-60.023 264.49 235.71h-743.22zm267.54-48.938 259.59-238.41v469.75z"/>
</svg>
