<?xml version="1.0" encoding="UTF-8"?>
<svg width="1200pt" height="1200pt" version="1.1" viewBox="0 0 1200 1200" xmlns="http://www.w3.org/2000/svg">
 <g>
  <path d="m243.32 500.72h-195.17c-18.227 0-32.531 14.305-32.531 32.531v520.45c0 18.227 14.305 32.531 32.531 32.531h195.17c18.227 0 32.512-14.305 32.512-32.531l0.003906-520.45c0.019531-18.227-14.289-32.531-32.512-32.531z"/>
  <path d="m1184.4 562.37c0-53.008-36.395-106.65-105.9-106.65h-315.13c45.02-80.531 58.258-193.8 26.961-276.68-22.988-60.957-66.918-96.523-123.77-100.14l-0.91797-0.074219c-36.992-2.2695-69.02 25.445-72.094 62.383-8.1016 82.199-44.117 227.59-95.738 279.21-43.461 43.461-80.664 61.668-142.33 91.82-8.9258 4.3672-18.676 9.1328-28.988 14.27 0.1875 2.2305 0.30078 4.4609 0.30078 6.75v515.14c7.4453 2.5508 14.793 5.082 22.012 7.5547 101.77 35.082 189.73 65.363 324.17 65.363h254.77c69.523 0 105.9-53.664 105.9-106.65 0-15.73-3.1875-31.5-9.5078-45.938 23.156-4.1641 43.426-15.301 58.445-32.344 17.043-19.367 26.438-45.113 26.438-72.488 0-15.676-3.1875-31.445-9.4883-45.844 55.82-9.6367 84.883-57.543 84.883-104.91 0-27.469-9.7891-55.125-28.875-75.375 19.055-20.273 28.863-47.93 28.863-75.398z"/>
 </g>
</svg>
