<?xml version="1.0" encoding="UTF-8"?>
<svg width="1200pt" height="1200pt" version="1.1" viewBox="0 0 1200 1200" xmlns="http://www.w3.org/2000/svg">
 <path d="m1127.4 71.785c-13.43-14.004-30.688-23.75-49.617-28.016-18.93-4.2695-38.695-2.8711-56.84 4.0156l-915.51 340.41c-23.551 8.7734-42.562 26.676-52.73 49.656s-10.633 49.09-1.2891 72.418c9.3477 23.328 27.711 41.895 50.934 51.496l336.26 139.03 345.39-345.39-0.003906 0.003906c10.887-10.512 26.512-14.508 41.105-10.504 14.598 4 26 15.402 30 30 4.0039 14.594 0.007812 30.219-10.504 41.105l-348.69 348.73 108.98 320.74 0.003907-0.003906c6.0352 18.078 17.512 33.852 32.852 45.16 15.344 11.309 33.805 17.598 52.863 18.012h2.7852c18.574 0.085938 36.738-5.4297 52.129-15.828s27.289-25.191 34.141-42.457l368.57-911.57h0.003907c7.4375-17.91 9.4297-37.613 5.7266-56.648-3.707-19.035-12.945-36.555-26.559-50.367z" fill="#fff"/>
</svg>
